<svg width="65" height="13" viewBox="0 0 65 13" fill="none" xmlns="http://www.w3.org/2000/svg">
<path d="M4 9.136C4.48 9.63733 4.976 10.096 5.488 10.512L5.312 10.672L5.056 10.928C5.03467 10.9493 5.008 10.976 4.976 11.008C4.944 11.04 4.90133 11.0827 4.848 11.136C4.79467 11.1893 4.72 11.264 4.624 11.36C4.528 11.4453 4.4 11.5573 4.24 11.696L4.224 11.68C3.904 11.3493 3.568 11.0347 3.216 10.736C2.87467 10.4267 2.53333 10.112 2.192 9.792C1.85067 9.472 1.50933 9.14133 1.168 8.8C0.826667 8.45867 0.506667 8.08533 0.208 7.68C0.410667 7.424 0.634667 7.168 0.88 6.912C1.12533 6.64533 1.38133 6.37867 1.648 6.112C1.91467 5.83467 2.18133 5.56267 2.448 5.296C2.71467 5.01867 2.97067 4.752 3.216 4.496C3.376 4.32533 3.53067 4.16533 3.68 4.016C3.82933 3.856 3.97867 3.70133 4.128 3.552C4.224 3.60533 4.32 3.68533 4.416 3.792C4.512 3.888 4.61333 3.98933 4.72 4.096C4.82667 4.20267 4.93333 4.30933 5.04 4.416C5.14667 4.512 5.248 4.592 5.344 4.656C5.184 4.85867 4.98667 5.08267 4.752 5.328C4.51733 5.57333 4.26667 5.83467 4 6.112C3.744 6.37867 3.48267 6.65067 3.216 6.928C2.96 7.20533 2.73067 7.472 2.528 7.728C3.02933 8.16533 3.52 8.63467 4 9.136ZM11.8605 0.799999C12.2232 0.799999 12.5805 0.815999 12.9325 0.848L12.9485 0.863999C12.7885 2.70933 12.6072 4.54933 12.4045 6.384C12.2125 8.21867 12.0418 10.064 11.8925 11.92C11.8178 11.9413 11.7325 11.952 11.6365 11.952C11.5512 11.952 11.4552 11.952 11.3485 11.952H10.7725H10.5805C10.4845 11.824 10.3992 11.6427 10.3245 11.408C10.2605 11.1627 10.1912 10.9067 10.1165 10.64C10.0418 10.3627 9.96717 10.096 9.8925 9.84C9.81783 9.584 9.7325 9.38133 9.6365 9.232H9.6205C9.5245 9.328 9.43917 9.49867 9.3645 9.744C9.3005 9.97867 9.2365 10.2347 9.1725 10.512C9.1085 10.7787 9.0445 11.04 8.9805 11.296C8.9165 11.552 8.84183 11.7493 8.7565 11.888C8.61783 11.9093 8.48983 11.9307 8.3725 11.952C8.25517 11.9627 8.12183 11.968 7.9725 11.968C7.80183 11.968 7.59917 11.952 7.3645 11.92H7.3485C7.0925 10.096 6.84183 8.26133 6.5965 6.416C6.35117 4.57067 6.2125 2.72533 6.1805 0.879999V0.863999C6.3405 0.842666 6.50583 0.826666 6.6765 0.815999C6.85783 0.794666 7.03917 0.783999 7.2205 0.783999C7.43383 0.783999 7.64717 0.789333 7.8605 0.799999C8.07383 0.810666 8.2765 0.821333 8.4685 0.832C8.51117 1.30133 8.5325 1.82933 8.5325 2.416C8.5325 3.00267 8.5325 3.59467 8.5325 4.192C8.5325 4.78933 8.5485 5.376 8.5805 5.952C8.6125 6.528 8.68717 7.04533 8.8045 7.504C8.94317 7.024 9.06583 6.55467 9.1725 6.096C9.28983 5.62667 9.40717 5.152 9.5245 4.672C9.53517 4.65067 9.5405 4.63467 9.5405 4.624C9.5405 4.61333 9.54583 4.60267 9.5565 4.592C9.59917 4.624 9.65783 4.77867 9.7325 5.056C9.81783 5.32267 9.89783 5.62667 9.9725 5.968C10.0578 6.30933 10.1378 6.64533 10.2125 6.976C10.2978 7.30667 10.3725 7.552 10.4365 7.712C10.4792 7.25333 10.5112 6.73067 10.5325 6.144C10.5538 5.54667 10.5698 4.93867 10.5805 4.32C10.6018 3.70133 10.6178 3.09867 10.6285 2.512C10.6498 1.91467 10.6818 1.38133 10.7245 0.912V0.896C10.9058 0.853333 11.0925 0.826666 11.2845 0.815999C11.4765 0.805333 11.6685 0.799999 11.8605 0.799999ZM16.0861 8.032C15.8515 8.02133 15.6808 8.00533 15.5741 7.984V8.272C15.5848 8.592 15.5955 8.85333 15.6061 9.056C15.6275 9.25867 15.6968 9.456 15.8141 9.648C15.9421 9.89333 16.1235 10.0747 16.3581 10.192C16.5928 10.3093 16.8221 10.3467 17.0461 10.304C17.2701 10.2613 17.4568 10.1333 17.6061 9.92C17.7661 9.696 17.8355 9.36533 17.8141 8.928C17.9208 8.93867 18.0648 8.944 18.2461 8.944C18.4275 8.93333 18.6141 8.92267 18.8061 8.912C19.0088 8.90133 19.2008 8.90133 19.3821 8.912C19.5635 8.912 19.7128 8.928 19.8301 8.96C19.8088 9.23733 19.7875 9.50933 19.7661 9.776C19.7448 10.0427 19.7181 10.2933 19.6861 10.528C19.6541 10.752 19.6115 10.9493 19.5581 11.12C19.5155 11.28 19.4568 11.392 19.3821 11.456C19.2008 11.712 18.9661 11.8933 18.6781 12C18.3901 12.1067 18.0755 12.1707 17.7341 12.192C17.3928 12.2133 17.0408 12.2133 16.6781 12.192C16.3261 12.1707 16.0008 12.16 15.7021 12.16C15.4035 12.1173 15.1261 12.0213 14.8701 11.872C14.5821 11.6693 14.3421 11.408 14.1501 11.088C13.9581 10.7573 13.8035 10.4 13.6861 10.016C13.5688 9.62133 13.4888 9.20533 13.4461 8.768C13.4035 8.33067 13.3928 7.89333 13.4141 7.456C13.4461 7.06133 13.4781 6.68267 13.5101 6.32C13.5528 5.94667 13.6381 5.584 13.7661 5.232C13.9048 4.92267 14.1181 4.66133 14.4061 4.448C14.6941 4.224 15.0195 4.05867 15.3821 3.952C15.7448 3.83467 16.1288 3.77067 16.5341 3.76C16.9395 3.74933 17.3341 3.792 17.7181 3.888C18.2088 3.97333 18.6035 4.144 18.9021 4.4C19.2008 4.656 19.4248 4.96533 19.5741 5.328C19.7341 5.69067 19.8301 6.09067 19.8621 6.528C19.8941 6.96533 19.8941 7.408 19.8621 7.856C19.7875 7.87733 19.6435 7.89867 19.4301 7.92C19.2275 7.94133 18.9821 7.96267 18.6941 7.984C18.4168 8.00533 18.1181 8.02133 17.7981 8.032C17.4781 8.04267 17.1688 8.048 16.8701 8.048C16.5821 8.048 16.3208 8.04267 16.0861 8.032ZM17.9581 5.936C17.8515 5.744 17.7021 5.6 17.5101 5.504C17.4248 5.45067 17.3395 5.41333 17.2541 5.392C17.1688 5.36 17.0675 5.344 16.9501 5.344C16.6941 5.344 16.4861 5.37067 16.3261 5.424C16.1661 5.47733 16.0381 5.552 15.9421 5.648C15.8461 5.744 15.7715 5.856 15.7181 5.984C15.6755 6.112 15.6435 6.24533 15.6221 6.384C15.6008 6.50133 15.5901 6.58667 15.5901 6.64C15.6008 6.68267 15.6541 6.71467 15.7501 6.736C15.8461 6.74667 15.9955 6.752 16.1981 6.752C16.4115 6.74133 16.7208 6.736 17.1261 6.736C17.4035 6.736 17.6115 6.74133 17.7501 6.752C17.8888 6.76267 17.9848 6.768 18.0381 6.768C18.1021 6.75733 18.1341 6.74133 18.1341 6.72C18.1341 6.688 18.1341 6.62933 18.1341 6.544C18.1341 6.33067 18.0755 6.128 17.9581 5.936ZM22.6355 0.719999C22.7848 0.730666 22.8595 0.741333 22.8595 0.752V0.927999C22.8702 1.14133 22.8755 1.30667 22.8755 1.424C22.8862 1.53067 22.8915 1.632 22.8915 1.728C22.9022 1.81333 22.9075 1.90933 22.9075 2.016C22.9182 2.112 22.9235 2.256 22.9235 2.448C22.9235 2.62933 22.9235 2.87467 22.9235 3.184C22.9235 3.49333 22.9182 3.89867 22.9075 4.4C22.9288 4.304 23.0462 4.21867 23.2595 4.144C23.4728 4.06933 23.7342 4.02133 24.0435 4C24.3528 3.968 24.6782 3.968 25.0195 4C25.3715 4.02133 25.6915 4.08533 25.9795 4.192C26.2142 4.27733 26.4115 4.42667 26.5715 4.64C26.7422 4.84267 26.8755 5.09333 26.9715 5.392C27.0782 5.68 27.1528 6 27.1955 6.352C27.2488 6.704 27.2755 7.06667 27.2755 7.44C27.2542 7.97333 27.2168 8.50133 27.1635 9.024C27.1102 9.54667 26.9928 10.0213 26.8115 10.448C26.6408 10.864 26.3795 11.2107 26.0275 11.488C25.6755 11.7547 25.1955 11.9093 24.5875 11.952C24.2888 11.9947 24.0062 11.9733 23.7395 11.888C23.4728 11.792 23.2595 11.584 23.0995 11.264C23.0675 11.2 23.0355 11.184 23.0035 11.216C22.9822 11.2373 22.9608 11.2747 22.9395 11.328C22.9395 11.4453 22.9342 11.536 22.9235 11.6C22.9235 11.664 22.9235 11.7493 22.9235 11.856C22.9235 11.9093 22.9182 11.9467 22.9075 11.968C22.5875 12.0107 22.2302 12.0213 21.8355 12C21.4408 11.9893 21.0782 11.984 20.7475 11.984C20.7262 11.216 20.7155 10.4213 20.7155 9.6C20.7262 8.768 20.7368 7.92533 20.7475 7.072C20.7688 6.208 20.7902 5.33333 20.8115 4.448C20.8328 3.56267 20.8435 2.67733 20.8435 1.792V0.735999C21.0142 0.704 21.2168 0.688 21.4515 0.688C21.6862 0.677333 21.9048 0.677333 22.1075 0.688C22.3208 0.688 22.4968 0.698666 22.6355 0.719999ZM25.4355 7.424C25.4248 7.264 25.3928 7.10933 25.3395 6.96C25.2862 6.58667 25.1262 6.304 24.8595 6.112C24.6035 5.92 24.2568 5.824 23.8195 5.824C23.5955 5.824 23.4142 5.84533 23.2755 5.888C23.1475 5.92 23.0515 6 22.9875 6.128C22.9235 6.256 22.8808 6.44267 22.8595 6.688C22.8488 6.92267 22.8435 7.248 22.8435 7.664C22.8435 8.00533 22.8488 8.32 22.8595 8.608C22.8808 8.88533 22.9288 9.12533 23.0035 9.328C23.0888 9.53067 23.2062 9.69067 23.3555 9.808C23.5048 9.92533 23.7182 9.984 23.9955 9.984C24.2195 9.984 24.4222 9.92533 24.6035 9.808C24.7848 9.69067 24.9395 9.536 25.0675 9.344C25.1955 9.14133 25.2915 8.91733 25.3555 8.672C25.4195 8.416 25.4515 8.15467 25.4515 7.888C25.4515 7.73867 25.4462 7.584 25.4355 7.424ZM33.1294 1.296C33.4494 1.54133 33.7054 1.81867 33.8974 2.128C34.132 2.49067 34.324 2.86933 34.4734 3.264C34.6334 3.648 34.7614 4.05333 34.8574 4.48C34.9107 4.65067 34.9427 4.82133 34.9534 4.992C34.9747 5.152 34.9907 5.31733 35.0014 5.488C34.98 5.98933 34.9587 6.496 34.9374 7.008C34.9267 7.50933 34.8734 8.00533 34.7774 8.496C34.7774 8.50667 34.772 8.512 34.7614 8.512C34.7614 8.512 34.7614 8.51733 34.7614 8.528C34.548 9.15733 34.2547 9.75467 33.8814 10.32C33.5187 10.8853 33.1347 11.4187 32.7294 11.92C32.0254 11.9413 31.316 11.9573 30.6014 11.968C29.8867 11.968 29.1934 11.968 28.5214 11.968C28.5214 11.968 28.516 11.9733 28.5054 11.984C28.388 11.1413 28.3134 10.272 28.2814 9.376C28.2494 8.46933 28.2334 7.552 28.2334 6.624C28.2334 5.696 28.2387 4.76267 28.2494 3.824C28.2707 2.87467 28.2707 1.936 28.2494 1.008C28.26 0.997333 28.2654 0.986666 28.2654 0.976C28.276 0.965333 28.2867 0.954666 28.2974 0.943999C28.596 0.869333 28.9054 0.821333 29.2254 0.799999C29.556 0.768 29.8867 0.757333 30.2174 0.768C30.548 0.768 30.8734 0.773333 31.1934 0.783999C31.524 0.794666 31.844 0.794666 32.1534 0.783999C32.4947 0.869333 32.82 1.04 33.1294 1.296ZM32.2014 8.224C32.2867 8.128 32.3614 8.032 32.4254 7.936C32.6067 7.65867 32.7347 7.35467 32.8094 7.024C32.8947 6.69333 32.8947 6.33067 32.8094 5.936C32.7774 5.776 32.74 5.61067 32.6974 5.44C32.6547 5.25867 32.5907 5.088 32.5054 4.928C32.4307 4.768 32.3347 4.62933 32.2174 4.512C32.1 4.384 31.9507 4.288 31.7694 4.224C31.588 4.20267 31.3907 4.192 31.1774 4.192C30.964 4.18133 30.7614 4.19733 30.5694 4.24H30.5374H30.5214V4.304C30.5427 4.592 30.5534 4.90133 30.5534 5.232C30.5534 5.56267 30.548 5.90933 30.5374 6.272C30.5267 6.624 30.5214 6.98667 30.5214 7.36C30.5214 7.72267 30.532 8.08533 30.5534 8.448C30.6707 8.55467 30.8307 8.60267 31.0334 8.592C31.2467 8.58133 31.4494 8.56533 31.6414 8.544C31.6947 8.55467 31.7427 8.54933 31.7854 8.528C31.828 8.496 31.876 8.46933 31.9294 8.448C32.036 8.384 32.1267 8.30933 32.2014 8.224ZM38.3361 8.032C38.1015 8.02133 37.9308 8.00533 37.8241 7.984V8.272C37.8348 8.592 37.8455 8.85333 37.8561 9.056C37.8775 9.25867 37.9468 9.456 38.0641 9.648C38.1921 9.89333 38.3735 10.0747 38.6081 10.192C38.8428 10.3093 39.0721 10.3467 39.2961 10.304C39.5201 10.2613 39.7068 10.1333 39.8561 9.92C40.0161 9.696 40.0855 9.36533 40.0641 8.928C40.1708 8.93867 40.3148 8.944 40.4961 8.944C40.6775 8.93333 40.8641 8.92267 41.0561 8.912C41.2588 8.90133 41.4508 8.90133 41.6321 8.912C41.8135 8.912 41.9628 8.928 42.0801 8.96C42.0588 9.23733 42.0375 9.50933 42.0161 9.776C41.9948 10.0427 41.9681 10.2933 41.9361 10.528C41.9041 10.752 41.8615 10.9493 41.8081 11.12C41.7655 11.28 41.7068 11.392 41.6321 11.456C41.4508 11.712 41.2161 11.8933 40.9281 12C40.6401 12.1067 40.3255 12.1707 39.9841 12.192C39.6428 12.2133 39.2908 12.2133 38.9281 12.192C38.5761 12.1707 38.2508 12.16 37.9521 12.16C37.6535 12.1173 37.3761 12.0213 37.1201 11.872C36.8321 11.6693 36.5921 11.408 36.4001 11.088C36.2081 10.7573 36.0535 10.4 35.9361 10.016C35.8188 9.62133 35.7388 9.20533 35.6961 8.768C35.6535 8.33067 35.6428 7.89333 35.6641 7.456C35.6961 7.06133 35.7281 6.68267 35.7601 6.32C35.8028 5.94667 35.8881 5.584 36.0161 5.232C36.1548 4.92267 36.3681 4.66133 36.6561 4.448C36.9441 4.224 37.2695 4.05867 37.6321 3.952C37.9948 3.83467 38.3788 3.77067 38.7841 3.76C39.1895 3.74933 39.5841 3.792 39.9681 3.888C40.4588 3.97333 40.8535 4.144 41.1521 4.4C41.4508 4.656 41.6748 4.96533 41.8241 5.328C41.9841 5.69067 42.0801 6.09067 42.1121 6.528C42.1441 6.96533 42.1441 7.408 42.1121 7.856C42.0375 7.87733 41.8935 7.89867 41.6801 7.92C41.4775 7.94133 41.2321 7.96267 40.9441 7.984C40.6668 8.00533 40.3681 8.02133 40.0481 8.032C39.7281 8.04267 39.4188 8.048 39.1201 8.048C38.8321 8.048 38.5708 8.04267 38.3361 8.032ZM40.2081 5.936C40.1015 5.744 39.9521 5.6 39.7601 5.504C39.6748 5.45067 39.5895 5.41333 39.5041 5.392C39.4188 5.36 39.3175 5.344 39.2001 5.344C38.9441 5.344 38.7361 5.37067 38.5761 5.424C38.4161 5.47733 38.2881 5.552 38.1921 5.648C38.0961 5.744 38.0215 5.856 37.9681 5.984C37.9255 6.112 37.8935 6.24533 37.8721 6.384C37.8508 6.50133 37.8401 6.58667 37.8401 6.64C37.8508 6.68267 37.9041 6.71467 38.0001 6.736C38.0961 6.74667 38.2455 6.752 38.4481 6.752C38.6615 6.74133 38.9708 6.736 39.3761 6.736C39.6535 6.736 39.8615 6.74133 40.0001 6.752C40.1388 6.76267 40.2348 6.768 40.2881 6.768C40.3521 6.75733 40.3841 6.74133 40.3841 6.72C40.3841 6.688 40.3841 6.62933 40.3841 6.544C40.3841 6.33067 40.3255 6.128 40.2081 5.936ZM43.5464 4.032C43.9304 4 44.293 4.00533 44.6344 4.048C44.709 4.432 44.7837 4.87467 44.8584 5.376C44.933 5.86667 45.013 6.368 45.0984 6.88C45.1837 7.392 45.2744 7.88267 45.3704 8.352C45.4664 8.81067 45.573 9.2 45.6904 9.52C45.8077 9.2 45.9144 8.8 46.0104 8.32C46.1064 7.82933 46.197 7.32267 46.2824 6.8C46.3784 6.27733 46.4797 5.77067 46.5864 5.28C46.693 4.78933 46.8104 4.384 46.9384 4.064C47.1197 4.064 47.2904 4.05867 47.4504 4.048C47.6104 4.03733 47.7757 4.02667 47.9464 4.016C48.117 4.00533 48.293 4 48.4744 4C48.6557 4 48.8584 4.00533 49.0824 4.016C48.8584 4.624 48.661 5.25867 48.4904 5.92C48.3304 6.57067 48.1757 7.23733 48.0264 7.92C47.877 8.60267 47.7277 9.29067 47.5784 9.984C47.429 10.6667 47.2637 11.344 47.0824 12.016C46.869 12.048 46.629 12.064 46.3624 12.064C46.1064 12.0747 45.8397 12.0747 45.5624 12.064C45.2957 12.064 45.029 12.0587 44.7624 12.048C44.5064 12.048 44.277 12.048 44.0744 12.048C43.861 10.7147 43.6157 9.35467 43.3384 7.968C43.061 6.58133 42.7517 5.25867 42.4104 4C42.7944 4.04267 43.173 4.05333 43.5464 4.032ZM55.5196 9.104C55.4663 9.264 55.4076 9.424 55.3436 9.584L54.4316 11.888C54.4103 11.9307 54.3943 11.9573 54.3836 11.968C54.3196 11.9787 54.245 11.9893 54.1596 12C54.085 12 53.973 12 53.8236 12C53.685 12 53.4983 12 53.2636 12C53.0396 12 52.7463 12.0053 52.3836 12.016H52.3676C52.325 12.016 52.3196 11.9467 52.3516 11.808C52.3836 11.6693 52.4263 11.5147 52.4796 11.344C52.5436 11.1733 52.6076 11.0133 52.6716 10.864C52.7356 10.704 52.773 10.6027 52.7836 10.56C52.8583 10.3253 52.933 10.0907 53.0076 9.856C53.093 9.62133 53.189 9.38667 53.2956 9.152C53.317 9.07733 53.3436 8.98133 53.3756 8.864C53.4183 8.74667 53.4876 8.544 53.5836 8.256C53.6903 7.968 53.8396 7.568 54.0316 7.056C54.2236 6.544 54.4796 5.856 54.7996 4.992C54.917 4.68267 55.0183 4.37333 55.1036 4.064C55.1996 3.75467 55.301 3.44533 55.4076 3.136C55.4183 3.11467 55.4503 3.02933 55.5036 2.88C55.557 2.73067 55.621 2.544 55.6956 2.32C55.781 2.08533 55.8663 1.824 55.9516 1.536C56.037 1.248 56.117 0.954666 56.1916 0.655999C56.341 0.687999 56.5116 0.704 56.7036 0.704C56.8956 0.693333 57.0876 0.682666 57.2796 0.672C57.4716 0.661333 57.6583 0.661333 57.8396 0.672C58.021 0.682666 58.1756 0.72 58.3036 0.783999C58.2823 0.837333 58.2663 0.885333 58.2556 0.927999C58.245 0.96 58.229 1.008 58.2076 1.072C58.165 1.22133 58.0903 1.472 57.9836 1.824C57.877 2.16533 57.717 2.688 57.5036 3.392C57.397 3.69067 57.2903 3.98933 57.1836 4.288C57.077 4.576 56.9756 4.864 56.8796 5.152C56.677 5.73867 56.4796 6.32 56.2876 6.896C56.1063 7.472 55.909 8.048 55.6956 8.624C55.6423 8.784 55.5836 8.944 55.5196 9.104ZM59.3614 10.928L59.1054 10.672L58.9294 10.512C59.4414 10.096 59.9374 9.63733 60.4174 9.136C60.8974 8.63467 61.388 8.16533 61.8894 7.728C61.676 7.472 61.4414 7.20533 61.1854 6.928C60.9294 6.65067 60.668 6.37867 60.4014 6.112C60.1454 5.83467 59.9 5.57333 59.6654 5.328C59.4307 5.08267 59.2334 4.85867 59.0734 4.656C59.1694 4.592 59.2707 4.512 59.3774 4.416C59.484 4.30933 59.5854 4.20267 59.6814 4.096C59.788 3.98933 59.8894 3.888 59.9854 3.792C60.092 3.68533 60.1934 3.60533 60.2894 3.552C60.4387 3.70133 60.588 3.856 60.7374 4.016C60.8867 4.16533 61.0414 4.32533 61.2014 4.496C61.4467 4.752 61.7027 5.01867 61.9694 5.296C62.236 5.56267 62.5027 5.83467 62.7694 6.112C63.036 6.37867 63.292 6.64533 63.5374 6.912C63.7827 7.168 64.0067 7.424 64.2094 7.68C63.9 8.08533 63.5747 8.45867 63.2334 8.8C62.9027 9.14133 62.5667 9.472 62.2254 9.792C61.884 10.112 61.5374 10.4267 61.1854 10.736C60.844 11.0347 60.5134 11.3493 60.1934 11.68L60.1774 11.696C60.0174 11.5573 59.8894 11.4453 59.7934 11.36C59.6974 11.264 59.6174 11.1893 59.5534 11.136C59.5 11.0827 59.4574 11.04 59.4254 11.008C59.404 10.976 59.3827 10.9493 59.3614 10.928Z" fill="white"/>
</svg>
